<svg xmlns="http://www.w3.org/2000/svg" xmlns:xlink="http://www.w3.org/1999/xlink" width="286.546" height="80.625" viewBox="0 0 286.546 80.625">
  <defs>
    <clipPath id="clip-path">
      <rect id="Rectangle_1862" data-name="Rectangle 1862" width="284.25" height="70.748" fill="none" stroke="#303df6" stroke-width="2"/>
    </clipPath>
  </defs>
  <g id="circle" transform="matrix(0.999, 0.035, -0.035, 0.999, 2.469, 0)">
    <g id="Groupe_5308" data-name="Groupe 5308" transform="translate(0 0)" clip-path="url(#clip-path)">
      <path id="Tracé_4570" data-name="Tracé 4570" d="M37.287,8.031c24.334-5.213,45.8-4.725,70.4-6.32A523.561,523.561,0,0,1,235.128,8.474c9.138,1.63,18.434,3.508,26.214,7.626s13.874,10.936,13.61,18.323c-.309,8.61-8.839,15.635-17.849,20.5C240.414,63.94,223.689,66.049,204.214,67.9c-40.757,3.868-81.991,2.366-123,.858-18.031-.663-36.187-1.339-53.749-4.63C21,62.914,14.478,61.289,9.2,58.093S.052,49.857.542,44.624c.485-5.2,5.057-9.615,10.179-12.907C21.676,24.674,35.59,21.248,49.271,18.449,123.661,3.23,209.476-.215,284.026,16.163" transform="translate(0.069 -0.051)" fill="none" stroke="#303df6" stroke-miterlimit="10" stroke-width="2"/>
    </g>
  </g>
</svg>
