<svg xmlns="http://www.w3.org/2000/svg" xmlns:xlink="http://www.w3.org/1999/xlink" width="221.83" height="92.479" viewBox="0 0 221.83 92.479">
  <defs>
    <clipPath id="clip-path">
      <rect id="Rectangle_1862" data-name="Rectangle 1862" width="219.001" height="84.888" fill="none" stroke="#fff" stroke-width="2"/>
    </clipPath>
  </defs>
  <g id="circle" transform="matrix(0.999, 0.035, -0.035, 0.999, 2.963, 0)">
    <g id="Groupe_5308" data-name="Groupe 5308" transform="translate(0 0)" clip-path="url(#clip-path)">
      <path id="Tracé_4570" data-name="Tracé 4570" d="M28.843,9.536c18.748-6.255,35.286-5.67,54.242-7.583a261.937,261.937,0,0,1,98.185,8.114c7.041,1.955,14.2,4.209,20.2,9.15S212.156,32.34,211.952,41.2c-.238,10.331-6.81,18.76-13.752,24.6-12.858,10.817-25.744,13.348-40.748,15.566-31.4,4.641-63.17,2.839-94.763,1.029-13.892-.8-27.88-1.607-41.411-5.555C16.292,75.389,11.269,73.439,7.2,69.6A21.159,21.159,0,0,1,.533,53.443c.374-6.238,3.9-11.537,7.843-15.487,8.44-8.45,19.16-12.561,29.7-15.919C95.389,3.776,161.506-.358,218.944,19.293" transform="translate(-0.061 0.039)" fill="none" stroke="#fff" stroke-miterlimit="10" stroke-width="2"/>
    </g>
  </g>
</svg>
