<svg id="Groupe_6680" data-name="Groupe 6680" xmlns="http://www.w3.org/2000/svg" xmlns:xlink="http://www.w3.org/1999/xlink" width="17.585" height="22" viewBox="0 0 17.585 22">
  <defs>
    <clipPath id="clip-path">
      <rect id="Rectangle_2662" data-name="Rectangle 2662" width="17.585" height="22" fill="none" stroke="#fff" stroke-width="1"/>
    </clipPath>
  </defs>
  <g id="Groupe_6679" data-name="Groupe 6679" clip-path="url(#clip-path)">
    <path id="Tracé_6065" data-name="Tracé 6065" d="M16.885,17.321a6.934,6.934,0,0,0-2.167-3.242,2.5,2.5,0,0,0-1.206-.606,2.091,2.091,0,0,0-.49-.022,4.25,4.25,0,0,0-1.665.52.949.949,0,0,1-.618.087,1.373,1.373,0,0,1-.746-.392,19.78,19.78,0,0,1-3.255-4.7,1.357,1.357,0,0,1,.155-1.44,4.529,4.529,0,0,0,1-1.476,2.512,2.512,0,0,0-.035-1.868A6.924,6.924,0,0,0,5.589,1.019,2.39,2.39,0,0,0,4.518.53,2.269,2.269,0,0,0,2.7,1.058a18.26,18.26,0,0,0-1.543,1.42A2.717,2.717,0,0,0,.518,4.243l0,.012a7.988,7.988,0,0,0,.4,2.825,20.5,20.5,0,0,0,2.842,5.85c.277.41,1.389,2.014,1.674,2.418A19.859,19.859,0,0,0,9.867,20a7.32,7.32,0,0,0,2.453,1.286l.012,0c.146.033.3.067.455.094a2.041,2.041,0,0,0,1.358-.16,17.65,17.65,0,0,0,1.784-1.069A2.423,2.423,0,0,0,16.885,17.321Z" transform="translate(0.033 0.033)" fill="none" stroke="#fff" stroke-linecap="round" stroke-linejoin="round" stroke-width="1"/>
  </g>
</svg>
