<?xml version="1.0" encoding="iso-8859-1"?>
<!-- Generator: Adobe Illustrator 19.0.0, SVG Export Plug-In . SVG Version: 6.00 Build 0)  -->
<svg version="1.1" id="Layer_1" xmlns="http://www.w3.org/2000/svg" xmlns:xlink="http://www.w3.org/1999/xlink" x="0px" y="0px"
	 viewBox="0 0 512 512" style="enable-background:new 0 0 512 512;" xml:space="preserve">
<path style="fill:#0071CE;" d="M414.388,226.475c-4.5,0-8.927,0.311-13.266,0.901c-1.055-75.881-62.886-137.072-139.018-137.072
	c-64.993,0-119.568,44.597-134.802,104.857c-4.468-0.534-9.014-0.816-13.625-0.816C50.896,194.344,0,245.239,0,308.02
	c0,62.783,50.896,113.676,113.677,113.676h300.711c53.909,0,97.612-43.703,97.612-97.611S468.299,226.475,414.388,226.475z"/>
<path style="fill:#FFFFFF;" d="M320.433,285.424h-18.34c0.445-1.76,0.707-3.59,0.707-5.481v-88.915
	c0-12.402-10.147-22.549-22.549-22.549h-48.509c-12.402,0-22.549,10.147-22.549,22.549v88.915c0,1.892,0.262,3.722,0.706,5.481
	h-18.33c-12.402,0-15.725,7.51-7.385,16.689l56.652,62.347c8.341,9.179,21.989,9.179,30.329,0l56.652-62.347
	C336.157,292.934,332.835,285.424,320.433,285.424z"/>
<g>
</g>
<g>
</g>
<g>
</g>
<g>
</g>
<g>
</g>
<g>
</g>
<g>
</g>
<g>
</g>
<g>
</g>
<g>
</g>
<g>
</g>
<g>
</g>
<g>
</g>
<g>
</g>
<g>
</g>
</svg>
