<?xml version="1.0" encoding="utf-8"?>
<!-- Generator: Adobe Illustrator 26.3.1, SVG Export Plug-In . SVG Version: 6.00 Build 0)  -->
<svg version="1.1" id="Layer_1" xmlns="http://www.w3.org/2000/svg" xmlns:xlink="http://www.w3.org/1999/xlink" x="0px" y="0px"
	 viewBox="0 0 40 40" style="enable-background:new 0 0 40 40;" xml:space="preserve">
<path style="fill-rule:evenodd;clip-rule:evenodd;fill:#1B1F23;" d="M20,0.49c-11.05,0-20,8.95-20,20c0,8.85,5.72,16.33,13.67,18.98
	c1,0.17,1.38-0.43,1.38-0.95c0-0.47-0.02-2.05-0.02-3.73C10,35.72,8.7,33.57,8.3,32.44c-0.23-0.58-1.2-2.35-2.05-2.83
	c-0.7-0.38-1.7-1.3-0.03-1.33c1.57-0.02,2.7,1.45,3.08,2.05c1.8,3.03,4.68,2.18,5.82,1.65c0.17-1.3,0.7-2.18,1.27-2.68
	c-4.45-0.5-9.1-2.22-9.1-9.87c0-2.18,0.77-3.98,2.05-5.38c-0.2-0.5-0.9-2.55,0.2-5.3c0,0,1.67-0.52,5.5,2.05
	c1.6-0.45,3.3-0.68,5-0.68c1.7,0,3.4,0.23,5,0.68c3.82-2.6,5.5-2.05,5.5-2.05c1.1,2.75,0.4,4.8,0.2,5.3
	c1.28,1.4,2.05,3.18,2.05,5.38c0,7.67-4.67,9.38-9.12,9.87c0.73,0.62,1.35,1.83,1.35,3.7c0,2.67-0.03,4.82-0.03,5.5
	c0,0.52,0.38,1.15,1.38,0.95C34.28,36.82,40,29.32,40,20.49C40,9.44,31.05,0.49,20,0.49z"/>
</svg>
