<?xml version="1.0" encoding="utf-8"?>
<!-- Generator: Adobe Illustrator 26.3.1, SVG Export Plug-In . SVG Version: 6.00 Build 0)  -->
<svg version="1.1" id="Layer_1" xmlns="http://www.w3.org/2000/svg" xmlns:xlink="http://www.w3.org/1999/xlink" x="0px" y="0px"
	 viewBox="0 0 269.96 27" style="enable-background:new 0 0 269.96 27;" xml:space="preserve">
<g>
	<g>
		<path style="fill:#051367;" d="M34.71,18.66V2.64h2.1l5.81,12.05l5.77-12.05h2.12v16.01h-2.2V7.69l-5.17,10.97h-1.06L36.9,7.69
			v10.97H34.71z"/>
		<path style="fill:#051367;" d="M57.02,18.99c-0.89,0-1.64-0.17-2.24-0.5c-0.6-0.33-1.06-0.77-1.36-1.31
			c-0.31-0.55-0.46-1.14-0.46-1.8c0-0.61,0.11-1.14,0.32-1.6s0.53-0.85,0.96-1.17c0.42-0.32,0.94-0.58,1.56-0.78
			c0.53-0.16,1.14-0.29,1.81-0.41c0.67-0.12,1.39-0.23,2.13-0.33c0.75-0.1,1.49-0.21,2.22-0.31l-0.85,0.47
			c0.02-0.94-0.18-1.64-0.6-2.1c-0.41-0.46-1.12-0.68-2.12-0.68c-0.63,0-1.21,0.15-1.74,0.44c-0.53,0.29-0.89,0.78-1.1,1.45
			L53.4,9.68c0.3-1.03,0.86-1.85,1.7-2.46c0.83-0.61,1.95-0.91,3.33-0.91c1.08,0,2.01,0.18,2.81,0.55s1.38,0.95,1.75,1.74
			c0.19,0.39,0.31,0.81,0.36,1.25c0.04,0.44,0.07,0.91,0.07,1.41v7.4h-2.06v-2.75l0.4,0.36c-0.5,0.92-1.13,1.6-1.9,2.05
			C59.09,18.77,58.14,18.99,57.02,18.99z M57.44,17.09c0.66,0,1.23-0.12,1.7-0.35s0.86-0.53,1.15-0.9c0.29-0.36,0.48-0.74,0.57-1.13
			c0.13-0.36,0.2-0.76,0.22-1.2c0.02-0.45,0.03-0.8,0.03-1.07l0.76,0.28c-0.73,0.11-1.4,0.21-2,0.3s-1.14,0.18-1.63,0.26
			c-0.49,0.09-0.92,0.19-1.3,0.31c-0.32,0.11-0.6,0.24-0.85,0.4s-0.45,0.34-0.59,0.57c-0.14,0.22-0.22,0.49-0.22,0.81
			c0,0.31,0.08,0.6,0.23,0.86c0.16,0.26,0.39,0.47,0.71,0.63C56.53,17.01,56.94,17.09,57.44,17.09z"/>
		<path style="fill:#051367;" d="M71.07,18.99c-1.12,0-2.09-0.28-2.9-0.83c-0.81-0.56-1.44-1.31-1.88-2.28
			c-0.44-0.96-0.66-2.04-0.66-3.24c0-1.21,0.22-2.29,0.67-3.24c0.44-0.95,1.08-1.71,1.9-2.26s1.79-0.83,2.92-0.83
			s2.09,0.28,2.86,0.83s1.36,1.31,1.76,2.26s0.6,2.04,0.6,3.24s-0.2,2.28-0.6,3.24s-0.99,1.72-1.77,2.28
			C73.19,18.71,72.22,18.99,71.07,18.99z M71.25,24.33c-0.65,0-1.27-0.1-1.87-0.3c-0.6-0.2-1.16-0.5-1.65-0.88
			c-0.5-0.39-0.91-0.87-1.24-1.44l2.15-1.09c0.26,0.51,0.63,0.89,1.11,1.12c0.48,0.24,0.99,0.36,1.52,0.36
			c0.66,0,1.22-0.12,1.69-0.35s0.82-0.58,1.06-1.05s0.36-1.05,0.35-1.74V15.6h0.28V6.64h2.06v12.34c0,0.32-0.01,0.62-0.03,0.91
			c-0.02,0.29-0.06,0.58-0.12,0.87c-0.17,0.81-0.5,1.48-0.97,2c-0.48,0.53-1.09,0.92-1.82,1.18C73.02,24.2,72.19,24.33,71.25,24.33z
			 M71.4,16.89c0.76,0,1.39-0.18,1.87-0.55c0.48-0.36,0.83-0.86,1.06-1.5c0.22-0.64,0.33-1.37,0.33-2.2s-0.11-1.56-0.34-2.2
			c-0.23-0.64-0.57-1.13-1.05-1.49c-0.47-0.36-1.07-0.53-1.8-0.53c-0.77,0-1.41,0.19-1.9,0.57c-0.5,0.38-0.87,0.89-1.11,1.52
			c-0.24,0.64-0.36,1.35-0.36,2.14s0.12,1.51,0.36,2.15s0.6,1.15,1.09,1.53C70.04,16.7,70.66,16.89,71.4,16.89z"/>
		<path style="fill:#051367;" d="M79.82,18.66V6.64h2.08v3.47h0.28v8.54h-2.36V18.66z M88.26,18.66v-5.91
			c0-0.47-0.04-0.95-0.12-1.44c-0.08-0.49-0.23-0.95-0.44-1.37c-0.22-0.42-0.53-0.76-0.92-1.02c-0.4-0.26-0.91-0.39-1.55-0.39
			c-0.42,0-0.81,0.07-1.18,0.21s-0.7,0.36-0.97,0.66c-0.28,0.3-0.5,0.7-0.66,1.2s-0.24,1.1-0.24,1.81l-1.45-0.55
			c0-1.09,0.2-2.05,0.61-2.89c0.41-0.83,0.99-1.49,1.76-1.95c0.76-0.47,1.69-0.7,2.77-0.7c0.83,0,1.53,0.13,2.09,0.4
			s1.02,0.62,1.37,1.05c0.35,0.43,0.62,0.91,0.81,1.42c0.19,0.51,0.31,1.01,0.38,1.5s0.1,0.92,0.1,1.29v6.68H88.26z"/>
		<path style="fill:#051367;" d="M98.7,18.99c-1.19,0-2.24-0.26-3.14-0.78s-1.6-1.25-2.1-2.19c-0.5-0.94-0.75-2.03-0.75-3.27
			c0-1.31,0.25-2.45,0.74-3.42c0.49-0.96,1.18-1.71,2.06-2.24s1.91-0.79,3.08-0.79c1.22,0,2.27,0.28,3.13,0.85s1.5,1.37,1.93,2.42
			s0.6,2.29,0.51,3.73h-2.33v-0.85c-0.01-1.39-0.28-2.43-0.8-3.09c-0.52-0.67-1.3-1-2.35-1c-1.16,0-2.04,0.37-2.63,1.1
			c-0.59,0.73-0.88,1.79-0.88,3.18c0,1.32,0.29,2.34,0.88,3.07c0.59,0.72,1.43,1.08,2.54,1.08c0.73,0,1.36-0.16,1.89-0.5
			c0.53-0.33,0.94-0.8,1.24-1.42l2.28,0.72c-0.47,1.08-1.18,1.91-2.12,2.5C100.92,18.7,99.86,18.99,98.7,18.99z M94.42,13.31V11.5
			H103v1.81C103,13.31,94.42,13.31,94.42,13.31z"/>
		<path style="fill:#051367;" d="M105.31,8.51V6.64h8.21v1.87H105.31z M113.52,18.66c-0.76,0.15-1.5,0.21-2.23,0.19
			c-0.73-0.02-1.38-0.16-1.95-0.42s-1-0.67-1.29-1.22c-0.26-0.5-0.4-1-0.42-1.52s-0.03-1.1-0.03-1.75V3.3h2.34v10.51
			c0,0.48,0.01,0.9,0.02,1.26c0.01,0.36,0.09,0.66,0.23,0.9c0.27,0.46,0.69,0.72,1.27,0.78c0.58,0.06,1.27,0.04,2.05-0.07v1.98
			H113.52z"/>
		<path style="fill:#051367;" d="M116.27,4.67V2.41h2.33v2.26H116.27z M116.27,18.66V6.64h2.33v12.02H116.27z"/>
		<path style="fill:#051367;" d="M127.07,18.99c-1.23,0-2.28-0.27-3.14-0.82s-1.52-1.3-1.97-2.26c-0.46-0.96-0.69-2.04-0.7-3.26
			c0.01-1.24,0.24-2.33,0.71-3.29c0.47-0.95,1.13-1.7,2-2.24s1.91-0.81,3.13-0.81c1.31,0,2.43,0.33,3.37,0.98
			c0.93,0.65,1.54,1.55,1.84,2.68L130,10.64c-0.23-0.67-0.61-1.2-1.13-1.57s-1.12-0.56-1.8-0.56c-0.76,0-1.39,0.18-1.88,0.54
			s-0.85,0.85-1.09,1.47s-0.36,1.34-0.37,2.14c0.01,1.24,0.29,2.24,0.85,3c0.56,0.76,1.39,1.15,2.49,1.15
			c0.75,0,1.36-0.17,1.82-0.52c0.46-0.34,0.82-0.84,1.06-1.49l2.36,0.56c-0.39,1.17-1.04,2.07-1.95,2.7
			C129.46,18.68,128.36,18.99,127.07,18.99z"/>
		<path style="fill:#051367;" d="M139.03,18.66V2.64h6.48c0.16,0,0.35,0.01,0.58,0.02s0.45,0.04,0.66,0.07
			c0.89,0.14,1.63,0.45,2.23,0.91c0.6,0.47,1.04,1.06,1.34,1.77s0.44,1.5,0.44,2.36c0,1.28-0.33,2.38-0.98,3.3s-1.63,1.5-2.94,1.73
			l-0.95,0.11h-4.54v5.75H139.03z M141.35,10.7h4.06c0.15,0,0.31-0.01,0.49-0.02c0.18-0.01,0.35-0.04,0.52-0.08
			c0.47-0.11,0.86-0.32,1.15-0.62s0.5-0.65,0.62-1.04c0.13-0.39,0.19-0.79,0.19-1.18s-0.06-0.78-0.19-1.17s-0.33-0.73-0.62-1.03
			s-0.67-0.51-1.15-0.62c-0.16-0.04-0.34-0.07-0.52-0.09c-0.18-0.01-0.35-0.02-0.49-0.02h-4.06V10.7z M148.4,18.66l-3.16-6.52
			l2.35-0.6l3.47,7.12H148.4z"/>
		<path style="fill:#051367;" d="M158.83,18.99c-1.19,0-2.24-0.26-3.14-0.78s-1.6-1.25-2.1-2.19c-0.5-0.94-0.75-2.03-0.75-3.27
			c0-1.31,0.25-2.45,0.74-3.42c0.49-0.96,1.18-1.71,2.06-2.24s1.91-0.79,3.08-0.79c1.22,0,2.27,0.28,3.13,0.85s1.5,1.37,1.93,2.42
			s0.6,2.29,0.51,3.73h-2.33v-0.85c-0.01-1.39-0.28-2.43-0.8-3.09c-0.52-0.67-1.3-1-2.35-1c-1.16,0-2.04,0.37-2.63,1.1
			c-0.59,0.73-0.88,1.79-0.88,3.18c0,1.32,0.29,2.34,0.88,3.07c0.59,0.72,1.43,1.08,2.54,1.08c0.73,0,1.36-0.16,1.89-0.5
			c0.53-0.33,0.94-0.8,1.24-1.42l2.28,0.72c-0.47,1.08-1.18,1.91-2.12,2.5C161.05,18.7,160,18.99,158.83,18.99z M154.55,13.31V11.5
			h8.58v1.81C163.13,13.31,154.55,13.31,154.55,13.31z"/>
		<path style="fill:#051367;" d="M171.91,18.99c-1.23,0-2.28-0.27-3.14-0.82s-1.52-1.3-1.97-2.26c-0.46-0.96-0.69-2.04-0.7-3.26
			c0.01-1.24,0.24-2.33,0.71-3.29c0.47-0.95,1.13-1.7,2-2.24s1.91-0.81,3.13-0.81c1.31,0,2.43,0.33,3.37,0.98
			c0.93,0.65,1.54,1.55,1.84,2.68l-2.31,0.67c-0.23-0.67-0.61-1.2-1.13-1.57s-1.12-0.56-1.8-0.56c-0.76,0-1.39,0.18-1.88,0.54
			s-0.85,0.85-1.09,1.47c-0.24,0.62-0.36,1.34-0.37,2.14c0.01,1.24,0.29,2.24,0.85,3c0.56,0.76,1.39,1.15,2.49,1.15
			c0.75,0,1.36-0.17,1.82-0.52c0.46-0.34,0.82-0.84,1.06-1.49l2.36,0.56c-0.39,1.17-1.04,2.07-1.95,2.7
			C174.3,18.68,173.21,18.99,171.91,18.99z"/>
		<path style="fill:#051367;" d="M179.42,18.66V6.64h2.07v2.91l-0.29-0.38c0.15-0.39,0.34-0.74,0.58-1.06
			c0.24-0.32,0.51-0.59,0.82-0.8c0.3-0.22,0.64-0.39,1.02-0.52c0.37-0.12,0.76-0.2,1.15-0.22c0.39-0.03,0.77-0.01,1.13,0.06v2.18
			c-0.39-0.1-0.83-0.13-1.31-0.09s-0.92,0.2-1.32,0.46c-0.38,0.24-0.68,0.54-0.9,0.89s-0.38,0.74-0.47,1.16
			c-0.1,0.43-0.14,0.88-0.14,1.35v6.06h-2.34V18.66z"/>
		<path style="fill:#051367;" d="M192.55,18.98c-0.83,0-1.53-0.13-2.09-0.4s-1.02-0.62-1.37-1.05c-0.35-0.43-0.62-0.91-0.81-1.42
			s-0.31-1.01-0.38-1.5s-0.1-0.92-0.1-1.29V6.64h2.36v5.91c0,0.47,0.04,0.95,0.12,1.44c0.08,0.49,0.23,0.95,0.45,1.37
			s0.53,0.76,0.92,1.02c0.4,0.26,0.91,0.39,1.55,0.39c0.42,0,0.81-0.07,1.18-0.21s0.7-0.36,0.97-0.66c0.28-0.3,0.5-0.7,0.66-1.2
			s0.24-1.1,0.24-1.81l1.45,0.55c0,1.09-0.2,2.05-0.61,2.89c-0.41,0.83-0.99,1.49-1.76,1.95C194.56,18.75,193.63,18.98,192.55,18.98
			z M196.52,18.66v-3.47h-0.28V6.64h2.35v12.02H196.52z"/>
		<path style="fill:#051367;" d="M201.93,4.67V2.41h2.33v2.26H201.93z M201.93,18.66V6.64h2.33v12.02H201.93z"/>
		<path style="fill:#051367;" d="M206.26,8.51V6.64h8.21v1.87H206.26z M214.47,18.66c-0.76,0.15-1.5,0.21-2.23,0.19
			c-0.73-0.02-1.38-0.16-1.95-0.42c-0.57-0.26-1-0.67-1.29-1.22c-0.26-0.5-0.4-1-0.42-1.52s-0.03-1.1-0.03-1.75V3.3h2.34v10.51
			c0,0.48,0.01,0.9,0.02,1.26c0.01,0.36,0.09,0.66,0.23,0.9c0.27,0.46,0.69,0.72,1.27,0.78s1.27,0.04,2.05-0.07L214.47,18.66
			L214.47,18.66z"/>
		<path style="fill:#051367;" d="M216.98,18.66V6.64h2.07v3.47h0.27v8.54h-2.34V18.66z M224.19,18.66l0.01-7.44
			c0-0.88-0.22-1.56-0.66-2.06s-1.03-0.75-1.77-0.75c-0.73,0-1.33,0.25-1.77,0.76c-0.45,0.5-0.67,1.16-0.67,1.98l-1.11-0.71
			c0-0.79,0.19-1.49,0.57-2.1c0.38-0.62,0.89-1.1,1.54-1.46s1.38-0.53,2.19-0.53c0.85,0,1.58,0.18,2.18,0.54
			c0.6,0.36,1.06,0.86,1.37,1.51c0.32,0.65,0.47,1.39,0.47,2.25l-0.01,8.02h-2.34V18.66z M231.39,18.66l0.01-7.49
			c0-0.87-0.22-1.54-0.67-2.03s-1.03-0.73-1.76-0.73c-0.44,0-0.85,0.1-1.22,0.31c-0.37,0.2-0.66,0.51-0.89,0.91
			s-0.34,0.91-0.34,1.52l-1.12-0.57c-0.01-0.85,0.16-1.59,0.54-2.23c0.37-0.64,0.88-1.13,1.53-1.49c0.65-0.35,1.37-0.53,2.17-0.53
			c1.3,0,2.3,0.39,3.02,1.17c0.71,0.78,1.07,1.81,1.07,3.1l-0.01,8.04h-2.33V18.66z"/>
		<path style="fill:#051367;" d="M241.8,18.99c-1.19,0-2.24-0.26-3.14-0.78s-1.6-1.25-2.1-2.19c-0.5-0.94-0.75-2.03-0.75-3.27
			c0-1.31,0.25-2.45,0.74-3.42c0.49-0.96,1.18-1.71,2.06-2.24s1.91-0.79,3.08-0.79c1.22,0,2.27,0.28,3.13,0.85s1.5,1.37,1.93,2.42
			s0.6,2.29,0.51,3.73h-2.33v-0.85c-0.01-1.39-0.28-2.43-0.8-3.09c-0.52-0.67-1.3-1-2.35-1c-1.16,0-2.04,0.37-2.63,1.1
			c-0.59,0.73-0.88,1.79-0.88,3.18c0,1.32,0.29,2.34,0.88,3.07c0.59,0.72,1.43,1.08,2.54,1.08c0.73,0,1.36-0.16,1.89-0.5
			c0.53-0.33,0.94-0.8,1.24-1.42l2.28,0.72c-0.47,1.08-1.18,1.91-2.12,2.5C244.02,18.7,242.97,18.99,241.8,18.99z M237.52,13.31
			V11.5h8.58v1.81C246.1,13.31,237.52,13.31,237.52,13.31z"/>
		<path style="fill:#051367;" d="M249.4,18.66V6.64h2.08v3.47h0.28v8.54h-2.36V18.66z M257.85,18.66v-5.91
			c0-0.47-0.04-0.95-0.12-1.44c-0.08-0.49-0.23-0.95-0.44-1.37c-0.22-0.42-0.53-0.76-0.92-1.02c-0.4-0.26-0.91-0.39-1.55-0.39
			c-0.42,0-0.81,0.07-1.18,0.21s-0.7,0.36-0.97,0.66c-0.28,0.3-0.5,0.7-0.66,1.2s-0.24,1.1-0.24,1.81l-1.45-0.55
			c0-1.09,0.2-2.05,0.61-2.89c0.41-0.83,0.99-1.49,1.76-1.95c0.76-0.47,1.69-0.7,2.77-0.7c0.83,0,1.53,0.13,2.09,0.4
			s1.02,0.62,1.37,1.05c0.35,0.43,0.62,0.91,0.81,1.42s0.31,1.01,0.38,1.5s0.1,0.92,0.1,1.29v6.68H257.85z"/>
		<path style="fill:#051367;" d="M261.76,8.51V6.64h8.21v1.87H261.76z M269.97,18.66c-0.76,0.15-1.5,0.21-2.23,0.19
			c-0.73-0.02-1.38-0.16-1.95-0.42s-1-0.67-1.29-1.22c-0.26-0.5-0.4-1-0.42-1.52c-0.02-0.52-0.03-1.1-0.03-1.75V3.3h2.34v10.51
			c0,0.48,0.01,0.9,0.02,1.26c0.01,0.36,0.09,0.66,0.23,0.9c0.27,0.46,0.69,0.72,1.27,0.78s1.27,0.04,2.05-0.07v1.98H269.97z"/>
	</g>
</g>
<g>
	<g>
		<polyline style="fill:#FFFFFF;" points="6.18,4.73 6,3.55 8.76,2.54 12.62,2.77 14.62,4.73 16.47,7.96 16.36,8.21 		"/>
		<polygon style="fill:#051367;" points="16.46,8.25 16.27,8.17 16.36,7.97 14.54,4.79 12.57,2.87 8.77,2.64 6.11,3.62 6.28,4.72 
			6.08,4.75 5.89,3.48 8.74,2.44 12.66,2.67 14.71,4.68 16.59,7.95 		"/>
	</g>
	<g>
		<polygon style="fill:#FFFFFF;" points="7.77,15.52 9.31,9.41 5.36,10.1 3.83,16.21 		"/>
		<path style="fill:#051367;" d="M3.69,16.33l1.59-6.32l4.16-0.73L7.85,15.6L3.69,16.33z M5.44,10.18l-1.48,5.9l3.73-0.65l1.48-5.9
			L5.44,10.18z"/>
	</g>
	<g>
		<path style="fill:#FFFFFF;" d="M1.65,3.65c0,0.31,0.06,0.62,0.15,0.92C1.93,5,2.13,5.3,2.36,5.69c0.26,0.46,0.59,0.84,0.87,1.29
			c0.1,0.17,0.24,0.3,0.35,0.47c0.25,0.4,0.54,0.77,0.8,1.16c0.24,0.35,0.47,0.7,0.71,1.05C5.1,9.7,5.32,10.1,5.36,10.1l-1.53,6.11
			c-0.04,0.01-0.26-0.4-0.29-0.43c-0.24-0.35-0.47-0.7-0.71-1.05c-0.26-0.39-0.54-0.76-0.8-1.16c-0.11-0.17-0.25-0.3-0.35-0.47
			c-0.27-0.45-0.61-0.84-0.87-1.29c-0.22-0.39-0.42-0.69-0.56-1.13c-0.09-0.3-0.15-0.6-0.15-0.92c0-0.22-0.03-0.57,0.08-0.75
			L1.65,3.65z"/>
		<path style="fill:#051367;" d="M3.82,16.31c-0.07,0-0.12-0.07-0.33-0.42c-0.02-0.03-0.03-0.05-0.03-0.05l-0.71-1.05
			c-0.11-0.16-0.22-0.32-0.34-0.48c-0.15-0.22-0.31-0.45-0.46-0.68c-0.05-0.07-0.1-0.14-0.16-0.21c-0.06-0.08-0.13-0.16-0.19-0.25
			c-0.12-0.2-0.26-0.39-0.39-0.58c-0.16-0.23-0.33-0.46-0.47-0.72c-0.04-0.07-0.08-0.14-0.12-0.21c-0.18-0.3-0.33-0.57-0.44-0.93
			c-0.1-0.33-0.15-0.64-0.15-0.94c0-0.04,0-0.08,0-0.12c0-0.22-0.01-0.49,0.09-0.67l1.63-6.1v0.75c0,0.28,0.05,0.58,0.14,0.89
			C2,4.88,2.15,5.14,2.32,5.43C2.36,5.5,2.4,5.57,2.44,5.65c0.14,0.24,0.3,0.47,0.46,0.7c0.14,0.19,0.28,0.39,0.4,0.59
			c0.05,0.08,0.11,0.15,0.17,0.23C3.54,7.24,3.6,7.32,3.66,7.4c0.15,0.23,0.3,0.45,0.46,0.67c0.11,0.16,0.23,0.32,0.34,0.49
			l0.71,1.05c0.01,0.01,0.02,0.03,0.04,0.06c0.1,0.16,0.16,0.27,0.2,0.32l0.1-0.02l-1.59,6.32L3.86,16.3
			C3.84,16.31,3.83,16.31,3.82,16.31z M1.61,4.2L0.28,9.06C0.21,9.19,0.21,9.44,0.22,9.63c0,0.05,0,0.09,0,0.13
			c0,0.28,0.05,0.58,0.14,0.89c0.11,0.34,0.25,0.6,0.43,0.89c0.04,0.07,0.08,0.14,0.12,0.22c0.14,0.24,0.3,0.47,0.46,0.7
			c0.14,0.19,0.28,0.39,0.4,0.59c0.05,0.08,0.11,0.15,0.17,0.23c0.06,0.07,0.12,0.15,0.17,0.23c0.15,0.23,0.3,0.45,0.46,0.67
			c0.11,0.16,0.23,0.32,0.34,0.49l0.71,1.05c0,0.01,0.02,0.03,0.04,0.06c0.05,0.08,0.09,0.14,0.12,0.2l1.47-5.85
			C5.2,10.07,5.13,9.96,5.02,9.78C5.01,9.75,5,9.73,4.99,9.72l-0.7-1.05C4.18,8.51,4.06,8.35,3.95,8.18
			C3.8,7.97,3.64,7.74,3.49,7.51C3.44,7.44,3.39,7.37,3.33,7.3C3.26,7.21,3.19,7.13,3.14,7.04c-0.12-0.2-0.26-0.39-0.39-0.58
			C2.58,6.23,2.41,6,2.27,5.74C2.23,5.67,2.19,5.6,2.15,5.53C1.97,5.23,1.82,4.96,1.7,4.6C1.66,4.46,1.63,4.33,1.61,4.2z"/>
	</g>
	<g>
		<path style="fill:#FFFFFF;" d="M16.41,8.26c-0.06,0.01-0.44-0.61-0.48-0.67c-0.49-0.68-0.98-1.37-1.47-2.05
			c-0.45-0.63-0.86-1.32-1.47-1.8C12.43,3.29,11.7,3,11,2.94c-0.33-0.02-0.66-0.02-0.99,0.03C9.45,3.07,8.9,3.16,8.34,3.25
			c-0.66,0.11-1.4,0.1-1.89,0.67c-0.2,0.23-0.27,0.51-0.27,0.82c0,0.44,0.35,0.84,0.58,1.18c0.25,0.35,0.49,0.7,0.74,1.05
			C7.98,7.63,8.45,8.3,8.93,8.98c0.21,0,0.45-0.01,0.65,0.04C9.79,9.08,10,9.11,10.21,9.18c0.42,0.14,0.82,0.35,1.17,0.63
			c0.61,0.48,1.02,1.17,1.47,1.8c0.49,0.68,0.98,1.37,1.47,2.05c0.04,0.06,0.42,0.68,0.48,0.67L16.41,8.26z"/>
		<path style="fill:#051367;" d="M14.78,14.42c-0.07,0-0.15-0.08-0.49-0.62c-0.03-0.05-0.05-0.08-0.06-0.09l-1.47-2.05
			c-0.09-0.12-0.17-0.25-0.26-0.37c-0.35-0.51-0.71-1.03-1.19-1.41c-0.34-0.27-0.72-0.47-1.14-0.61c-0.11-0.04-0.22-0.06-0.34-0.09
			c-0.1-0.02-0.19-0.04-0.29-0.07C9.39,9.07,9.2,9.07,9.03,9.07H8.87l-2.19-3.1c-0.03-0.05-0.07-0.09-0.1-0.14
			c-0.23-0.32-0.5-0.69-0.5-1.09c0-0.37,0.1-0.65,0.3-0.88c0.43-0.5,1.03-0.58,1.61-0.65C8.1,3.18,8.22,3.17,8.33,3.15l1.66-0.27
			C10.3,2.83,10.64,2.82,11,2.85c0.71,0.05,1.46,0.35,2.05,0.81c0.5,0.4,0.87,0.93,1.23,1.45c0.09,0.12,0.17,0.25,0.26,0.37
			l1.47,2.05c0.01,0.01,0.03,0.05,0.07,0.1c0.07,0.11,0.27,0.43,0.35,0.52l0.11-0.02l-1.68,6.28l-0.06,0.01
			C14.79,14.42,14.79,14.42,14.78,14.42z M9.14,8.87c0.15,0,0.31,0.01,0.46,0.05c0.09,0.03,0.18,0.04,0.27,0.06
			c0.12,0.03,0.24,0.05,0.36,0.09c0.44,0.15,0.84,0.36,1.2,0.64c0.5,0.39,0.87,0.93,1.23,1.45c0.09,0.12,0.17,0.25,0.26,0.37
			l1.47,2.05c0.01,0.01,0.03,0.05,0.07,0.1c0.05,0.09,0.19,0.3,0.28,0.43l1.56-5.83c-0.07-0.07-0.18-0.23-0.39-0.56
			c-0.03-0.05-0.05-0.08-0.06-0.09L14.38,5.6c-0.09-0.12-0.17-0.25-0.26-0.37c-0.35-0.51-0.71-1.03-1.19-1.41
			c-0.56-0.44-1.26-0.72-1.94-0.77c-0.35-0.03-0.68-0.02-0.97,0.03L8.36,3.35C8.25,3.36,8.13,3.38,8.01,3.4
			c-0.54,0.07-1.1,0.14-1.48,0.58c-0.17,0.2-0.25,0.44-0.25,0.75c0,0.34,0.24,0.68,0.46,0.98c0.04,0.05,0.07,0.1,0.11,0.15
			l2.13,3.02h0.05C9.07,8.87,9.1,8.87,9.14,8.87z"/>
	</g>
	<g>
		<path style="fill:#FFFFFF;" d="M5.36,10.05l3.9-0.69C9.17,9.23,9.08,9.1,8.98,8.97C8.49,8.27,8,7.57,7.51,6.87
			c-0.25-0.35-0.49-0.7-0.74-1.05C6.53,5.48,6.18,5.08,6.18,4.64c0-0.31,0.07-0.58,0.27-0.82c0.48-0.56,1.22-0.56,1.89-0.67
			C8.89,3.06,9.45,2.97,10,2.88c0.33-0.05,0.66-0.06,0.99-0.03c0.7,0.05,1.43,0.35,1.99,0.79c0.61,0.48,1.02,1.17,1.47,1.8
			c0.49,0.68,0.98,1.37,1.47,2.05c0.04,0.06,0.42,0.68,0.48,0.67l3.81-0.64l-3.16-4.41l0,0c-0.56-0.76-1.35-1.37-2.13-1.84
			C13,0.12,10.77-0.24,8.61,0.09C7.23,0.3,5.83,0.51,4.44,0.72C3.59,0.85,2.61,1.5,2.1,2.21c-0.29,0.4-0.45,0.89-0.45,1.4
			c0,0.31,0.06,0.62,0.15,0.92c0.13,0.44,0.34,0.74,0.56,1.13C2.61,6.1,2.95,6.49,3.22,6.94c0.1,0.17,0.24,0.3,0.35,0.47
			c0.25,0.4,0.54,0.77,0.8,1.16c0.24,0.35,0.47,0.7,0.71,1.05C5.1,9.66,5.32,10.06,5.36,10.05z"/>
		<path style="fill:#051367;" d="M5.35,10.15c-0.07,0-0.12-0.07-0.33-0.42C5.01,9.7,5,9.68,4.99,9.68l-0.7-1.06
			C4.18,8.46,4.06,8.3,3.95,8.14C3.8,7.92,3.64,7.69,3.49,7.46c-0.05-0.07-0.1-0.14-0.16-0.21C3.26,7.17,3.19,7.09,3.14,6.99
			c-0.12-0.2-0.26-0.39-0.4-0.58C2.58,6.19,2.41,5.95,2.27,5.7C2.23,5.62,2.19,5.55,2.15,5.48C1.97,5.18,1.82,4.92,1.7,4.55
			C1.6,4.22,1.55,3.9,1.55,3.6c0-0.52,0.16-1.03,0.47-1.46c0.54-0.75,1.55-1.39,2.4-1.52L8.6-0.01c2.25-0.34,4.52,0.08,6.38,1.2
			c0.94,0.56,1.67,1.19,2.16,1.87L20.4,7.6l-0.16,0.03c-3.81,0.64-3.81,0.64-3.82,0.64c-0.08,0.01-0.13-0.01-0.51-0.62
			c-0.03-0.05-0.05-0.08-0.06-0.09L14.38,5.5c-0.09-0.12-0.17-0.25-0.26-0.37c-0.35-0.51-0.71-1.03-1.19-1.41
			C12.37,3.28,11.66,3,10.99,2.95c-0.35-0.03-0.68-0.02-0.97,0.03L8.36,3.25C8.25,3.27,8.13,3.29,8.01,3.3
			c-0.54,0.08-1.1,0.15-1.48,0.59c-0.17,0.2-0.25,0.44-0.25,0.75c0,0.34,0.24,0.68,0.46,0.98c0.04,0.05,0.07,0.1,0.11,0.15
			l2.59,3.67L9.28,9.46c-3.32,0.59-3.82,0.67-3.9,0.69l0,0C5.37,10.15,5.36,10.15,5.35,10.15z M10.13,0.07c-0.5,0-1,0.04-1.49,0.11
			L4.46,0.82c-0.8,0.12-1.77,0.74-2.27,1.44C1.9,2.66,1.75,3.12,1.75,3.61c0,0.28,0.05,0.58,0.14,0.89C2,4.84,2.15,5.09,2.32,5.38
			C2.36,5.45,2.4,5.52,2.44,5.6c0.14,0.24,0.3,0.47,0.46,0.7c0.14,0.19,0.28,0.39,0.4,0.59c0.05,0.08,0.11,0.15,0.17,0.23
			C3.54,7.19,3.6,7.27,3.66,7.35c0.15,0.23,0.3,0.45,0.46,0.67c0.11,0.16,0.23,0.32,0.34,0.49l0.71,1.05
			C5.16,9.57,5.18,9.6,5.19,9.63c0.1,0.16,0.16,0.27,0.2,0.32c0.39-0.07,3.03-0.53,3.7-0.65L6.68,5.88
			c-0.03-0.05-0.07-0.09-0.1-0.14c-0.23-0.32-0.5-0.69-0.5-1.09c0-0.37,0.1-0.65,0.3-0.88c0.43-0.5,1.03-0.58,1.61-0.65
			C8.1,3.09,8.22,3.08,8.33,3.06l1.66-0.27C10.3,2.74,10.64,2.73,11,2.76c0.71,0.05,1.46,0.35,2.05,0.81
			c0.5,0.4,0.87,0.93,1.23,1.45c0.09,0.12,0.17,0.25,0.26,0.37l1.47,2.05c0.01,0.01,0.03,0.05,0.07,0.1
			c0.07,0.11,0.27,0.43,0.35,0.52c0.35-0.06,2.95-0.5,3.62-0.61l-3.06-4.28c-0.48-0.66-1.19-1.27-2.11-1.82
			C13.47,0.51,11.82,0.07,10.13,0.07z M16.39,8.07L16.39,8.07L16.39,8.07z"/>
	</g>
	<g>
		<polygon style="fill:#FFFFFF;" points="18.78,13.63 20.31,7.52 16.36,8.21 14.83,14.32 		"/>
		<path style="fill:#051367;" d="M14.7,14.45l1.59-6.32l4.16-0.73l-1.59,6.32L14.7,14.45z M16.45,8.3l-1.48,5.9l3.73-0.65l1.48-5.9
			L16.45,8.3z"/>
	</g>
	<g>
		<path style="fill:#FFFFFF;" d="M23.59,24.55c-0.51,0.78-1.52,1.35-2.35,1.48c-1.39,0.21-2.78,0.42-4.18,0.64
			c-2.17,0.33-4.4-0.04-6.31-1.18c-0.79-0.47-1.58-1.08-2.13-1.84l0,0l-3.16-4.41l1.69-6.11l6.41,5.85l3.9,0.83l6.44-1.24l1.62-0.8
			c-0.21,0.78-0.41,1.56-0.62,2.34c-0.28,1.07-0.56,2.13-0.85,3.2c-0.06,0.23-0.12,0.47-0.2,0.69c-0.03,0.07-0.05,0.15-0.08,0.22
			C23.73,24.32,23.67,24.43,23.59,24.55z"/>
		<path style="fill:#051367;" d="M15.56,26.87c-1.73,0-3.41-0.45-4.85-1.31C9.76,25,9.03,24.37,8.54,23.7l-3.19-4.45l1.74-6.31
			l6.51,5.94l3.86,0.82l6.41-1.23l1.81-0.89l-1.54,5.84c-0.05,0.2-0.11,0.41-0.18,0.61c-0.01,0.03-0.02,0.06-0.03,0.09
			c-0.01,0.04-0.03,0.09-0.05,0.13c-0.05,0.12-0.12,0.25-0.2,0.37l0,0c-0.49,0.75-1.49,1.38-2.41,1.52l-4.18,0.64
			C16.57,26.84,16.06,26.87,15.56,26.87z M5.57,19.2l3.13,4.37c0.48,0.66,1.19,1.27,2.11,1.82c1.82,1.09,4.04,1.5,6.25,1.17
			l4.18-0.64c0.74-0.11,1.76-0.64,2.28-1.43l0,0c0.07-0.11,0.13-0.23,0.18-0.34c0.02-0.04,0.03-0.08,0.04-0.12
			c0.01-0.03,0.02-0.07,0.04-0.1c0.07-0.19,0.13-0.39,0.18-0.58l1.43-5.42l-1.45,0.71l-6.46,1.24h-0.02l-3.93-0.83L7.2,13.3
			L5.57,19.2z"/>
	</g>
	<g>
		<polygon style="fill:#FFFFFF;" points="18.05,11.27 16.41,17.34 17.23,18.43 21.23,17.63 21.93,15.43 20.31,12.68 		"/>
		<path style="fill:#051367;" d="M17.18,18.54l-0.89-1.18l1.68-6.24l2.4,1.49l1.66,2.81l-0.73,2.3L17.18,18.54z M16.52,17.32l0.75,1
			l3.89-0.78l0.67-2.11l-1.59-2.69l-2.13-1.32L16.52,17.32z"/>
	</g>
	<g>
		<path style="fill:#FFFFFF;" d="M21.95,10.54l-3.9,0.69c0.09,0.13,0.19,0.26,0.28,0.4c0.49,0.7,0.98,1.4,1.48,2.09
			c0.25,0.35,0.49,0.7,0.74,1.05c0.24,0.34,0.59,0.74,0.58,1.18c0,0.31-0.07,0.58-0.27,0.82c-0.48,0.56-1.22,0.56-1.89,0.67
			c-0.55,0.09-1.11,0.18-1.66,0.27c-0.33,0.05-0.66,0.06-0.99,0.03c-0.7-0.05-1.43-0.35-1.99-0.79c-0.61-0.48-1.02-1.17-1.47-1.8
			c-0.49-0.68-0.98-1.37-1.47-2.05c-0.04-0.06-0.42-0.68-0.48-0.67L7.1,13.07l3.16,4.41l0,0c0.56,0.76,1.35,1.37,2.13,1.84
			c1.92,1.15,4.15,1.51,6.31,1.18c1.39-0.21,2.78-0.42,4.18-0.64c0.85-0.13,1.83-0.78,2.34-1.48c0.29-0.41,0.45-0.89,0.45-1.4
			c0-0.31-0.06-0.62-0.15-0.92c-0.13-0.44-0.34-0.74-0.56-1.13c-0.26-0.46-0.59-0.84-0.87-1.29c-0.1-0.17-0.24-0.3-0.35-0.47
			c-0.25-0.4-0.54-0.77-0.8-1.16c-0.24-0.35-0.47-0.7-0.71-1.05C22.21,10.93,21.98,10.53,21.95,10.54z"/>
		<path style="fill:#051367;" d="M17.18,20.72c-1.73,0-3.41-0.45-4.85-1.31c-0.94-0.56-1.67-1.19-2.16-1.87L6.92,13l0.16-0.03
			l3.81-0.64c0.09-0.01,0.14,0.01,0.52,0.62c0.03,0.05,0.05,0.08,0.06,0.09l1.47,2.05c0.09,0.12,0.17,0.25,0.26,0.37
			c0.35,0.51,0.71,1.03,1.19,1.41c0.56,0.44,1.26,0.72,1.94,0.77c0.35,0.03,0.68,0.02,0.97-0.03l1.66-0.27
			c0.11-0.02,0.23-0.03,0.35-0.05c0.54-0.07,1.11-0.15,1.48-0.59c0.17-0.2,0.25-0.44,0.25-0.75c0-0.34-0.24-0.68-0.46-0.97
			c-0.04-0.05-0.07-0.1-0.11-0.15l-2.59-3.67l0.15-0.03c3.32-0.59,3.82-0.67,3.9-0.69l0,0c0.09-0.02,0.13,0.03,0.36,0.42
			c0.02,0.03,0.03,0.05,0.03,0.05l0.71,1.05c0.11,0.16,0.22,0.33,0.34,0.49c0.15,0.22,0.31,0.44,0.46,0.68
			c0.05,0.07,0.1,0.14,0.16,0.21c0.06,0.08,0.13,0.16,0.19,0.25c0.12,0.2,0.26,0.39,0.39,0.58c0.16,0.23,0.33,0.46,0.47,0.72
			c0.04,0.07,0.08,0.15,0.12,0.21c0.18,0.3,0.33,0.57,0.44,0.93c0.1,0.33,0.15,0.65,0.15,0.94c0,0.52-0.16,1.03-0.47,1.46
			c-0.54,0.75-1.55,1.39-2.4,1.52L18.7,20.6C18.2,20.68,17.69,20.72,17.18,20.72z M7.26,13.14l3.06,4.28
			c0.48,0.66,1.19,1.27,2.11,1.82c1.82,1.09,4.04,1.51,6.25,1.17l4.18-0.64c0.79-0.12,1.77-0.74,2.27-1.44
			c0.28-0.4,0.43-0.86,0.43-1.34c0-0.28-0.05-0.58-0.14-0.89c-0.11-0.34-0.25-0.6-0.42-0.89c-0.04-0.07-0.08-0.14-0.12-0.22
			c-0.14-0.24-0.3-0.47-0.46-0.7c-0.14-0.19-0.28-0.39-0.4-0.59c-0.05-0.08-0.11-0.15-0.17-0.23c-0.06-0.07-0.12-0.15-0.17-0.23
			c-0.15-0.23-0.3-0.45-0.46-0.67c-0.11-0.16-0.23-0.32-0.34-0.49l-0.71-1.05c-0.01-0.01-0.02-0.03-0.04-0.06
			c-0.1-0.16-0.16-0.27-0.2-0.32c-0.39,0.07-3.03,0.53-3.7,0.65l2.41,3.41c0.03,0.05,0.07,0.09,0.1,0.14
			c0.23,0.32,0.5,0.69,0.5,1.09c0,0.37-0.1,0.65-0.3,0.88c-0.43,0.5-1.03,0.58-1.61,0.65c-0.11,0.02-0.23,0.03-0.34,0.05l-1.66,0.27
			c-0.31,0.05-0.65,0.06-1.01,0.03c-0.71-0.05-1.46-0.35-2.05-0.81c-0.5-0.39-0.87-0.93-1.23-1.45c-0.09-0.12-0.17-0.25-0.26-0.37
			l-1.47-2.05c-0.01-0.01-0.03-0.05-0.07-0.1c-0.07-0.11-0.27-0.44-0.36-0.52L7.26,13.14z"/>
	</g>
</g>
</svg>
