<svg xmlns="http://www.w3.org/2000/svg" xmlns:xlink="http://www.w3.org/1999/xlink" width="23.022" height="22" viewBox="0 0 23.022 22">
  <defs>
    <clipPath id="clip-path">
      <rect id="Rectangle_2661" data-name="Rectangle 2661" width="23.022" height="22" fill="#fed159"/>
    </clipPath>
  </defs>
  <g id="Groupe_6677" data-name="Groupe 6677" transform="translate(0 0)">
    <g id="Groupe_6676" data-name="Groupe 6676" transform="translate(0 0)" clip-path="url(#clip-path)">
      <path id="Tracé_6063" data-name="Tracé 6063" d="M11.428.5a.478.478,0,0,0-.448.348L8.64,8.118,1,8.093a.5.5,0,0,0-.5.5.523.523,0,0,0,.2.4L6.873,13.47,4.509,20.739a.5.5,0,0,0,.771.548l6.173-4.506,6.174,4.506a.488.488,0,0,0,.7-.1.478.478,0,0,0,.074-.448L16.033,13.47l6.174-4.481a.484.484,0,0,0,.1-.7.518.518,0,0,0-.4-.2l-7.644.026L11.926.848A.507.507,0,0,0,11.428.5Z" transform="translate(0.055 0.054)" fill="#fed159"/>
    </g>
  </g>
</svg>
