<svg xmlns="http://www.w3.org/2000/svg" xmlns:xlink="http://www.w3.org/1999/xlink" width="20" height="19.556" viewBox="0 0 20 19.556">
  <defs>
    <clipPath id="clip-path">
      <rect id="Rectangle_2673" data-name="Rectangle 2673" width="20" height="19.556" transform="translate(0 0)" fill="#fd4747"/>
    </clipPath>
  </defs>
  <g id="Groupe_6722" data-name="Groupe 6722" transform="translate(0 0)">
    <g id="Groupe_6721" data-name="Groupe 6721" clip-path="url(#clip-path)">
      <path id="Tracé_6078" data-name="Tracé 6078" d="M19.5,3.433H.5a.5.5,0,0,1,0-1h19a.5.5,0,0,1,0,1" fill="#fd4747"/>
      <path id="Tracé_6079" data-name="Tracé 6079" d="M16.6,19.556H3.395a.5.5,0,0,1-.5-.5V2.933a.5.5,0,0,1,.5-.5H16.6a.5.5,0,0,1,.5.5V19.056a.5.5,0,0,1-.5.5m-12.71-1H16.1V3.433H3.895Z" fill="#fd4747"/>
      <path id="Tracé_6080" data-name="Tracé 6080" d="M10,15.671a.5.5,0,0,1-.5-.5V6.818a.5.5,0,0,1,1,0v8.353a.5.5,0,0,1-.5.5" fill="#fd4747"/>
      <path id="Tracé_6081" data-name="Tracé 6081" d="M13.225,13.943a.5.5,0,0,1-.5-.5v-4.9a.5.5,0,0,1,1,0v4.9a.5.5,0,0,1-.5.5" fill="#fd4747"/>
      <path id="Tracé_6082" data-name="Tracé 6082" d="M6.775,13.943a.5.5,0,0,1-.5-.5v-4.9a.5.5,0,0,1,1,0v4.9a.5.5,0,0,1-.5.5" fill="#fd4747"/>
      <path id="Tracé_6083" data-name="Tracé 6083" d="M14.031,3.418H5.969a.5.5,0,0,1-.5-.5V.5a.5.5,0,0,1,.5-.5h8.062a.5.5,0,0,1,.5.5V2.918a.5.5,0,0,1-.5.5m-7.562-1h7.062V1H6.469Z" fill="#fd4747"/>
    </g>
  </g>
</svg>
